# xmcd CD database file
#
# Track frame offsets:
#	151
#	28777
#	62665
#	107585
#	166943
#	198591
#
# Disc length: 3188 seconds
#
# Revision: 0
# Processed by: cddbd v1.5.2PL0 Copyright (c) Steve Scherf et al.
# Submitted via: CDex 1.51
#
DISCID=4a0c7206
DTITLE=Tommy Smith Youth Jazz Orchestra - Exploration
DYEAR=2007
DGENRE=Jazz
TTITLE0=Hoe Down (Oliver Nelson)
TTITLE1=Chronometry (Fred Sturm)
TTITLE2=Gentle Piece (Kenny Wheeler)
TTITLE3=A Night In Tinisia (Dizzy Gillespie)
TTITLE4=Cottontail (Duke Ellington)
TTITLE5=Now (Lars Jansson)
EXTD=YEAR: 2007
EXTT0=
EXTT1=
EXTT2=
EXTT3=
EXTT4=
EXTT5=
PLAYORDER=
